# 
# Generated by Sweet Home 3D - lun sep 18 01:09:51 GMT-03:00 2017
# http://www.sweethome3d.com/
# 
mtllib casita.mtl
g ground_1
usemtl ground_1
v 222.39053 0.0 -101.80313
v 222.39053 0.0 1029.3092
v 1293.25 0.0 1029.3092
v 1293.25 0.0 -101.80313
vn 0.0 1.0 0.0
vn 0.0 0.0 0.0
f 1//1 2//1 3//1
f 1//1 3//1 4//1
g wall_1_2
usemtl wall_1_2
v 985.75 0.0 421.8092
v 989.5 0.0 425.5592
v 1289.5 0.0 425.5592
v 1293.25 0.0 421.8092
vn 0.0 -1.0 0.0
f 8//3 7//3 6//3
f 8//3 6//3 5//3
g wall_1_3
usemtl wall_1_2
v 993.25 0.0 429.3092
v 1285.75 0.0 429.3092
f 7//3 10//3 9//3
f 7//3 9//3 6//3
g wall_1_4
usemtl wall_1_2
v 989.5 250.0 425.5592
v 985.75 250.0 421.8092
v 1293.25 250.0 421.8092
v 1289.5 250.0 425.5592
vn -0.70710677 0.0 0.70710677
vn 0.70710677 0.0 0.70710677
vn 0.0 0.0 -1.0
f 5//4 6//4 11//4 12//4
f 7//5 8//5 13//5 14//5
f 8//6 5//6 12//6 13//6
g wall_1_5
usemtl wall_1_2
v 993.25 250.0 429.3092
v 1285.75 250.0 429.3092
vn 0.0 0.0 1.0
f 6//4 9//4 15//4 11//4
f 9//7 10//7 16//7 15//7
f 10//5 7//5 14//5 16//5
g wall_1_6
usemtl wall_1_2
f 12//1 11//1 14//1
f 12//1 14//1 13//1
g wall_1_7
usemtl wall_1_2
f 11//1 15//1 16//1
f 11//1 16//1 14//1
g wall_2_8
usemtl wall_1_2
v 1289.5 0.0 623.5592
v 1293.25 0.0 623.5592
f 18//3 17//3 7//3
f 18//3 7//3 8//3
g wall_2_9
usemtl wall_1_2
v 1285.75 0.0 623.5592
f 17//3 19//3 10//3
f 17//3 10//3 7//3
g wall_2_10
usemtl wall_1_2
v 1293.25 250.0 623.5592
v 1289.5 250.0 623.5592
vn -0.70710677 0.0 -0.70710677
vn 1.0 0.0 0.0
f 8//8 7//8 14//8 13//8
f 17//7 18//7 20//7 21//7
f 18//9 8//9 13//9 20//9
g wall_2_11
usemtl wall_1_2
v 1285.75 250.0 623.5592
vn -1.0 0.0 0.0
f 7//8 10//8 16//8 14//8
f 10//10 19//10 22//10 16//10
f 19//7 17//7 21//7 22//7
g wall_2_12
usemtl wall_1_2
f 13//1 14//1 21//1
f 13//1 21//1 20//1
g wall_2_13
usemtl wall_1_2
f 14//1 16//1 22//1
f 14//1 22//1 21//1
g wall_3_14
usemtl wall_1_2
v 1289.5 0.0 683.5592
v 1289.5 0.0 923.5592
v 1293.25 0.0 927.3092
v 1293.25 0.0 683.5592
f 26//3 25//3 24//3
f 26//3 24//3 23//3
g wall_3_15
usemtl wall_1_2
v 1285.75 0.0 683.5592
v 1285.75 0.0 919.8092
f 23//3 24//3 28//3
f 23//3 28//3 27//3
g wall_3_16
usemtl wall_1_2
v 1293.25 250.0 927.3092
v 1289.5 250.0 923.5592
v 1293.25 250.0 683.5592
v 1289.5 250.0 683.5592
f 24//4 25//4 29//4 30//4
f 25//9 26//9 31//9 29//9
f 26//6 23//6 32//6 31//6
g wall_3_17
usemtl wall_1_2
v 1285.75 250.0 919.8092
v 1285.75 250.0 683.5592
f 27//10 28//10 33//10 34//10
f 28//4 24//4 30//4 33//4
f 23//6 27//6 34//6 32//6
g wall_3_18
usemtl wall_1_2
f 32//1 30//1 29//1
f 32//1 29//1 31//1
g wall_3_19
usemtl wall_1_2
f 34//1 33//1 30//1
f 34//1 30//1 32//1
g wall_4_20
usemtl wall_1_2
v 989.5 0.0 923.5592
v 985.75 0.0 927.3092
f 24//3 25//3 36//3
f 24//3 36//3 35//3
g wall_4_21
usemtl wall_1_2
v 993.25 0.0 919.8092
f 28//3 24//3 35//3
f 28//3 35//3 37//3
g wall_4_22
usemtl wall_1_2
v 985.75 250.0 927.3092
v 989.5 250.0 923.5592
vn 0.70710677 0.0 -0.70710677
f 35//8 36//8 38//8 39//8
f 36//7 25//7 29//7 38//7
f 25//11 24//11 30//11 29//11
g wall_4_23
usemtl wall_1_2
v 993.25 250.0 919.8092
f 37//8 35//8 39//8 40//8
f 24//11 28//11 33//11 30//11
f 28//6 37//6 40//6 33//6
g wall_4_24
usemtl wall_1_2
f 39//1 38//1 29//1
f 39//1 29//1 30//1
g wall_4_25
usemtl wall_1_2
f 40//1 39//1 30//1
f 40//1 30//1 33//1
g wall_5_26
usemtl wall_1_2
v 387.49997 0.0 425.55917
v 387.49997 0.0 623.5592
v 391.24997 0.0 619.8092
v 391.24997 0.0 427.11246
f 44//3 43//3 42//3
f 44//3 42//3 41//3
g wall_5_27
usemtl wall_1_2
v 383.74997 0.0 424.0059
v 383.74997 0.0 627.3092
f 41//3 42//3 46//3
f 41//3 46//3 45//3
g wall_5_28
usemtl wall_1_2
v 391.24997 250.0 619.8092
v 387.49997 250.0 623.5592
v 391.24997 250.0 427.11246
v 387.49997 250.0 425.55917
vn 0.3826798 0.0 -0.923881
f 42//5 43//5 47//5 48//5
f 43//9 44//9 49//9 47//9
f 44//12 41//12 50//12 49//12
g wall_5_29
usemtl wall_1_2
v 383.74997 250.0 627.3092
v 383.74997 250.0 424.0059
f 45//10 46//10 51//10 52//10
f 46//5 42//5 48//5 51//5
f 41//12 45//12 52//12 50//12
g wall_5_30
usemtl wall_1_2
f 50//1 48//1 47//1
f 50//1 47//1 49//1
g wall_5_31
usemtl wall_1_2
f 52//1 51//1 48//1
f 52//1 48//1 50//1
g wall_6_32
usemtl wall_1_2
v 791.5 0.0 623.5592
v 795.25 0.0 619.8092
f 54//3 53//3 42//3
f 54//3 42//3 43//3
g wall_6_33
usemtl wall_1_2
v 787.75 0.0 627.3092
f 53//3 55//3 46//3
f 53//3 46//3 42//3
g wall_6_34
usemtl wall_1_2
v 795.25 250.0 619.8092
v 791.5 250.0 623.5592
f 43//8 42//8 48//8 47//8
f 53//5 54//5 56//5 57//5
f 54//6 43//6 47//6 56//6
g wall_6_35
usemtl wall_1_2
v 787.75 250.0 627.3092
f 42//8 46//8 51//8 48//8
f 46//7 55//7 58//7 51//7
f 55//5 53//5 57//5 58//5
g wall_6_36
usemtl wall_1_2
f 47//1 48//1 57//1
f 47//1 57//1 56//1
g wall_6_37
usemtl wall_1_2
f 48//1 51//1 58//1
f 48//1 58//1 57//1
g wall_7_38
usemtl wall_1_2
v 387.49997 0.0 631.5592
v 387.49997 0.0 821.5592
v 391.24997 0.0 820.00586
v 391.24997 0.0 631.5592
f 62//3 61//3 60//3
f 62//3 60//3 59//3
g wall_7_39
usemtl wall_1_2
v 383.74997 0.0 631.5592
v 383.74997 0.0 823.11255
f 59//3 60//3 64//3
f 59//3 64//3 63//3
g wall_7_40
usemtl wall_1_2
v 391.24997 250.0 820.00586
v 387.49997 250.0 821.5592
v 391.24997 250.0 631.5592
v 387.49997 250.0 631.5592
vn 0.38269266 0.0 0.92387575
f 60//13 61//13 65//13 66//13
f 61//9 62//9 67//9 65//9
f 62//6 59//6 68//6 67//6
g wall_7_41
usemtl wall_1_2
v 383.74997 250.0 823.11255
v 383.74997 250.0 631.5592
f 63//10 64//10 69//10 70//10
f 64//13 60//13 66//13 69//13
f 59//6 63//6 70//6 68//6
g wall_7_42
usemtl wall_1_2
f 68//1 66//1 65//1
f 68//1 65//1 67//1
g wall_7_43
usemtl wall_1_2
f 70//1 69//1 66//1
f 70//1 66//1 68//1
g wall_8_44
usemtl wall_1_2
v 591.5 0.0 1025.5592
v 593.05334 0.0 1021.8092
f 72//3 71//3 60//3
f 72//3 60//3 61//3
g wall_8_45
usemtl wall_1_2
v 589.9467 0.0 1029.3092
f 71//3 73//3 64//3
f 71//3 64//3 60//3
g wall_8_46
usemtl wall_1_2
v 593.05334 250.0 1021.8092
v 591.5 250.0 1025.5592
vn -0.38269266 0.0 -0.92387575
vn 0.92387575 0.0 0.38269266
vn 0.7071067 0.0 -0.7071068
f 61//14 60//14 66//14 65//14
f 71//15 72//15 74//15 75//15
f 72//16 61//16 65//16 74//16
g wall_8_47
usemtl wall_1_2
v 589.9467 250.0 1029.3092
vn -0.70710665 0.0 0.70710695
vn 0.923881 0.0 0.3826798
f 60//14 64//14 69//14 66//14
f 64//17 73//17 76//17 69//17
f 73//18 71//18 75//18 76//18
g wall_8_48
usemtl wall_1_2
f 65//1 66//1 75//1
f 65//1 75//1 74//1
g wall_8_49
usemtl wall_1_2
f 66//1 69//1 76//1
f 66//1 76//1 75//1
g wall_9_50
usemtl wall_1_2
v 989.5 0.0 1025.5592
v 985.75 0.0 1021.8092
f 78//3 77//3 71//3
f 78//3 71//3 72//3
g wall_9_51
usemtl wall_1_2
v 993.25 0.0 1029.3092
f 77//3 79//3 73//3
f 77//3 73//3 71//3
g wall_9_52
usemtl wall_1_2
v 985.75 250.0 1021.8092
v 989.5 250.0 1025.5592
vn -0.92387575 0.0 -0.38269266
f 72//19 71//19 75//19 74//19
f 77//11 78//11 80//11 81//11
f 78//6 72//6 74//6 80//6
g wall_9_53
usemtl wall_1_2
v 993.25 250.0 1029.3092
vn -0.923881 0.0 -0.3826798
f 71//20 73//20 76//20 75//20
f 73//7 79//7 82//7 76//7
f 79//11 77//11 81//11 82//11
g wall_9_54
usemtl wall_1_2
f 74//1 75//1 81//1
f 74//1 81//1 80//1
g wall_9_55
usemtl wall_1_2
f 75//1 76//1 82//1
f 75//1 82//1 81//1
g wall_10_56
usemtl wall_1_2
v 985.75 0.0 923.5592
f 35//3 77//3 78//3
f 35//3 78//3 83//3
g wall_10_57
usemtl wall_1_2
v 993.25 0.0 923.5592
f 84//3 79//3 77//3
f 84//3 77//3 35//3
g wall_10_58
usemtl wall_1_2
v 985.75 250.0 923.5592
f 83//10 78//10 80//10 85//10
f 78//4 77//4 81//4 80//4
f 35//6 83//6 85//6 39//6
g wall_10_59
usemtl wall_1_2
v 993.25 250.0 923.5592
f 77//4 79//4 82//4 81//4
f 79//9 84//9 86//9 82//9
f 84//6 35//6 39//6 86//6
g wall_10_60
usemtl wall_1_2
f 85//1 80//1 81//1
f 85//1 81//1 39//1
g wall_10_61
usemtl wall_1_2
f 39//1 81//1 82//1
f 39//1 82//1 86//1
g wall_11_62
usemtl wall_1_2
v 1293.25 0.0 217.8092
v 1289.5 0.0 221.5592
v 1293.25 0.0 425.5592
f 89//3 7//3 88//3
f 89//3 88//3 87//3
g wall_11_63
usemtl wall_1_2
v 1285.75 0.0 225.3092
v 1285.75 0.0 425.5592
f 7//3 91//3 90//3
f 7//3 90//3 88//3
g wall_11_64
usemtl wall_1_2
v 1289.5 250.0 221.5592
v 1293.25 250.0 217.8092
v 1293.25 250.0 425.5592
f 87//8 88//8 92//8 93//8
f 7//7 89//7 94//7 14//7
f 89//9 87//9 93//9 94//9
g wall_11_65
usemtl wall_1_2
v 1285.75 250.0 225.3092
v 1285.75 250.0 425.5592
f 88//8 90//8 95//8 92//8
f 90//10 91//10 96//10 95//10
f 91//7 7//7 14//7 96//7
g wall_11_66
usemtl wall_1_2
f 93//1 92//1 14//1
f 93//1 14//1 94//1
g wall_11_67
usemtl wall_1_2
f 92//1 95//1 96//1
f 92//1 96//1 14//1
g wall_12_68
usemtl wall_1_2
v 791.5 0.0 821.5592
v 795.25 0.0 821.5592
f 98//3 97//3 53//3
f 98//3 53//3 54//3
g wall_12_69
usemtl wall_1_2
v 787.75 0.0 821.5592
f 97//3 99//3 55//3
f 97//3 55//3 53//3
g wall_12_70
usemtl wall_1_2
v 795.25 250.0 821.5592
v 791.5 250.0 821.5592
f 54//8 53//8 57//8 56//8
f 97//7 98//7 100//7 101//7
f 98//9 54//9 56//9 100//9
g wall_12_71
usemtl wall_1_2
v 787.75 250.0 821.5592
f 53//8 55//8 58//8 57//8
f 55//10 99//10 102//10 58//10
f 99//7 97//7 101//7 102//7
g wall_12_72
usemtl wall_1_2
f 56//1 57//1 101//1
f 56//1 101//1 100//1
g wall_12_73
usemtl wall_1_2
f 57//1 58//1 102//1
f 57//1 102//1 101//1
g wall_13_74
usemtl wall_1_2
v 989.5 0.0 623.5592
v 993.25 0.0 623.5592
f 9//3 104//3 103//3
f 9//3 103//3 6//3
g wall_13_75
usemtl wall_1_2
v 985.75 0.0 623.5592
f 6//3 103//3 105//3
f 6//3 105//3 5//3
g wall_13_76
usemtl wall_1_2
v 993.25 250.0 623.5592
v 989.5 250.0 623.5592
f 103//7 104//7 106//7 107//7
f 104//9 9//9 15//9 106//9
f 9//11 6//11 11//11 15//11
g wall_13_77
usemtl wall_1_2
v 985.75 250.0 623.5592
f 5//10 105//10 108//10 12//10
f 105//7 103//7 107//7 108//7
f 6//11 5//11 12//11 11//11
g wall_13_78
usemtl wall_1_2
f 11//1 107//1 106//1
f 11//1 106//1 15//1
g wall_13_79
usemtl wall_1_2
f 12//1 108//1 107//1
f 12//1 107//1 11//1
g wall_14_80
usemtl wall_1_2
v 985.75 0.0 683.5592
v 989.5 0.0 683.5592
f 110//3 35//3 36//3
f 110//3 36//3 109//3
g wall_14_81
usemtl wall_1_2
v 993.25 0.0 683.5592
f 111//3 37//3 35//3
f 111//3 35//3 110//3
g wall_14_82
usemtl wall_1_2
v 985.75 250.0 683.5592
v 989.5 250.0 683.5592
f 109//10 36//10 38//10 112//10
f 36//5 35//5 39//5 38//5
f 110//6 109//6 112//6 113//6
g wall_14_83
usemtl wall_1_2
v 993.25 250.0 683.5592
f 35//5 37//5 40//5 39//5
f 37//9 111//9 114//9 40//9
f 111//6 110//6 113//6 114//6
g wall_14_84
usemtl wall_1_2
f 112//1 38//1 39//1
f 112//1 39//1 113//1
g wall_14_85
usemtl wall_1_2
f 113//1 39//1 40//1
f 113//1 40//1 114//1
g wall_15_86
usemtl wall_1_2
v 222.39053 0.0 265.75305
v 384.84833 0.0 428.21085
v 387.49997 0.0 425.5592
v 227.69383 0.0 265.75305
f 118//3 117//3 116//3
f 118//3 116//3 115//3
g wall_15_87
usemtl wall_1_2
v 390.1516 0.0 422.90756
v 232.99713 0.0 265.75305
f 120//3 119//3 117//3
f 120//3 117//3 118//3
g wall_15_88
usemtl wall_1_2
v 384.84833 250.0 428.21085
v 222.39053 250.0 265.75305
v 387.49997 250.0 425.5592
v 227.69383 250.0 265.75305
f 115//4 116//4 121//4 122//4
f 116//5 117//5 123//5 121//5
f 118//6 115//6 122//6 124//6
g wall_15_89
usemtl wall_1_2
v 390.1516 250.0 422.90756
v 232.99713 250.0 265.75305
vn 0.7071068 0.0 -0.70710665
f 117//5 119//5 125//5 123//5
f 119//21 120//21 126//21 125//21
f 120//6 118//6 124//6 126//6
g wall_15_90
usemtl wall_1_2
f 122//1 121//1 123//1
f 122//1 123//1 124//1
g wall_15_91
usemtl wall_1_2
f 124//1 123//1 125//1
f 124//1 125//1 126//1
g wall_16_92
usemtl wall_1_2
v 433.4619 0.0 54.6817
v 433.4619 0.0 59.985
f 128//3 118//3 115//3
f 128//3 115//3 127//3
g wall_16_93
usemtl wall_1_2
v 433.46188 0.0 65.2883
f 129//3 120//3 118//3
f 129//3 118//3 128//3
g wall_16_94
usemtl wall_1_2
v 433.4619 250.0 54.6817
v 433.4619 250.0 59.985
vn -0.7071067 0.0 -0.7071068
f 127//22 115//22 122//22 130//22
f 115//7 118//7 124//7 122//7
f 128//9 127//9 130//9 131//9
g wall_16_95
usemtl wall_1_2
v 433.46188 250.0 65.2883
vn 1.0 0.0 0.0000058
f 118//7 120//7 126//7 124//7
f 120//5 129//5 132//5 126//5
f 129//23 128//23 131//23 132//23
g wall_16_96
usemtl wall_1_2
f 130//1 122//1 124//1
f 130//1 124//1 131//1
g wall_16_97
usemtl wall_1_2
f 131//1 124//1 126//1
f 131//1 126//1 132//1
g wall_17_98
usemtl wall_1_2
v 591.5 0.0 218.02307
v 594.1517 0.0 215.37141
f 134//3 133//3 128//3
f 134//3 128//3 127//3
g wall_17_99
usemtl wall_1_2
v 588.8483 0.0 220.67473
f 133//3 135//3 129//3
f 133//3 129//3 128//3
g wall_17_100
usemtl wall_1_2
v 594.1517 250.0 215.37141
v 591.5 250.0 218.02307
vn 0.70710474 0.0 0.7071088
vn 0.70710665 0.0 -0.7071069
f 127//10 128//10 131//10 130//10
f 133//24 134//24 136//24 137//24
f 134//25 127//25 130//25 136//25
g wall_17_101
usemtl wall_1_2
v 588.8483 250.0 220.67473
vn -1.0 0.0 -0.0000058
vn -0.7071067 0.0 0.7071068
f 128//26 129//26 132//26 131//26
f 129//27 135//27 138//27 132//27
f 135//24 133//24 137//24 138//24
g wall_17_102
usemtl wall_1_2
f 130//1 131//1 137//1
f 130//1 137//1 136//1
g wall_17_103
usemtl wall_1_2
f 131//1 132//1 138//1
f 131//1 138//1 137//1
g wall_18_104
usemtl wall_1_2
v 468.84833 0.0 338.90756
v 471.49997 0.0 341.5592
f 140//3 41//3 45//3
f 140//3 45//3 139//3
g wall_18_105
usemtl wall_1_2
v 474.1516 0.0 344.21085
f 141//3 44//3 41//3
f 141//3 41//3 140//3
g wall_18_106
usemtl wall_1_2
v 468.84833 250.0 338.90756
v 471.49997 250.0 341.5592
vn -0.70710665 0.0 -0.7071069
vn -0.3826798 0.0 0.923881
f 139//28 45//28 52//28 142//28
f 45//29 41//29 50//29 52//29
f 140//11 139//11 142//11 143//11
g wall_18_107
usemtl wall_1_2
v 474.1516 250.0 344.21085
vn 0.70710665 0.0 0.7071069
f 41//29 44//29 49//29 50//29
f 44//30 141//30 144//30 49//30
f 141//11 140//11 143//11 144//11
g wall_18_108
usemtl wall_1_2
f 142//1 52//1 50//1
f 142//1 50//1 143//1
g wall_18_109
usemtl wall_1_2
f 143//1 50//1 49//1
f 143//1 49//1 144//1
g wall_19_110
usemtl wall_1_2
v 591.5 0.0 221.5592
v 511.59692 0.0 301.46228
v 514.2486 0.0 304.11392
v 594.1517 0.0 224.21086
f 148//3 147//3 146//3
f 148//3 146//3 145//3
g wall_19_111
usemtl wall_1_2
v 588.8483 0.0 218.90755
v 508.94528 0.0 298.81064
f 145//3 146//3 150//3
f 145//3 150//3 149//3
g wall_19_112
usemtl wall_1_2
v 514.2486 250.0 304.11392
v 511.59692 250.0 301.46228
v 594.1517 250.0 224.21086
v 591.5 250.0 221.5592
vn -0.7071027 0.0 0.7071109
vn 0.7071067 0.0 0.7071068
vn 0.70710474 0.0 -0.7071088
f 146//31 147//31 151//31 152//31
f 147//32 148//32 153//32 151//32
f 148//33 145//33 154//33 153//33
g wall_19_113
usemtl wall_1_2
v 508.94528 250.0 298.81064
v 588.8483 250.0 218.90755
vn -0.707107 0.0 -0.7071066
f 149//34 150//34 155//34 156//34
f 150//4 146//4 152//4 155//4
f 145//33 149//33 156//33 154//33
g wall_19_114
usemtl wall_1_2
f 154//1 152//1 151//1
f 154//1 151//1 153//1
g wall_19_115
usemtl wall_1_2
f 156//1 155//1 152//1
f 156//1 152//1 154//1
g wall_20_116
usemtl wall_1_2
v 589.9467 0.0 -101.80313
v 430.81027 0.0 57.333336
v 433.4619 0.0 59.984985
v 591.5 0.0 -98.05313
f 160//3 159//3 158//3
f 160//3 158//3 157//3
g wall_20_117
usemtl wall_1_2
v 436.11356 0.0 62.636635
v 593.05334 0.0 -94.30313
f 162//3 161//3 159//3
f 162//3 159//3 160//3
g wall_20_118
usemtl wall_1_2
v 430.81027 250.0 57.333336
v 589.9467 250.0 -101.80313
v 433.4619 250.0 59.984985
v 591.5 250.0 -98.05313
vn -0.7071068 0.0 -0.7071067
vn -0.7071078 0.0 0.70710576
vn 0.923881 0.0 -0.3826798
f 157//35 158//35 163//35 164//35
f 158//36 159//36 165//36 163//36
f 160//37 157//37 164//37 166//37
g wall_20_119
usemtl wall_1_2
v 436.11356 250.0 62.636635
v 593.05334 250.0 -94.30313
vn 0.70710677 0.0 0.7071068
vn 0.92387575 0.0 -0.38269266
f 159//36 161//36 167//36 165//36
f 161//38 162//38 168//38 167//38
f 162//39 160//39 166//39 168//39
g wall_20_120
usemtl wall_1_2
f 164//1 163//1 165//1
f 164//1 165//1 166//1
g wall_20_121
usemtl wall_1_2
f 166//1 165//1 167//1
f 166//1 167//1 168//1
g wall_21_122
usemtl wall_1_2
v 1099.5 0.0 -98.053116
v 1103.25 0.0 -101.80311
f 170//3 169//3 160//3
f 170//3 160//3 157//3
g wall_21_123
usemtl wall_1_2
v 1095.75 0.0 -94.303116
f 169//3 171//3 162//3
f 169//3 162//3 160//3
g wall_21_124
usemtl wall_1_2
v 1103.25 250.0 -101.80311
v 1099.5 250.0 -98.053116
vn -0.923881 0.0 0.3826798
vn 0.70710605 0.0 0.7071075
vn 0 0.0 -1.0
f 157//40 160//40 166//40 164//40
f 169//41 170//41 172//41 173//41
f 170//42 157//42 164//42 172//42
g wall_21_125
usemtl wall_1_2
v 1095.75 250.0 -94.303116
vn -0.92387575 0.0 0.38269266
vn -0 0.0 1.0
f 160//43 162//43 168//43 166//43
f 162//44 171//44 174//44 168//44
f 171//5 169//5 173//5 174//5
g wall_21_126
usemtl wall_1_2
f 164//1 166//1 173//1
f 164//1 173//1 172//1
g wall_21_127
usemtl wall_1_2
f 166//1 168//1 174//1
f 166//1 174//1 173//1
g wall_22_128
usemtl wall_1_2
v 1099.5 0.0 221.5592
v 1103.25 0.0 221.5592
f 176//3 175//3 169//3
f 176//3 169//3 170//3
g wall_22_129
usemtl wall_1_2
v 1095.75 0.0 221.5592
f 175//3 177//3 171//3
f 175//3 171//3 169//3
g wall_22_130
usemtl wall_1_2
v 1103.25 250.0 221.5592
v 1099.5 250.0 221.5592
vn -0.70710605 0.0 -0.7071075
f 170//45 169//45 173//45 172//45
f 175//7 176//7 178//7 179//7
f 176//9 170//9 172//9 178//9
g wall_22_131
usemtl wall_1_2
v 1095.75 250.0 221.5592
f 169//8 171//8 174//8 173//8
f 171//10 177//10 180//10 174//10
f 177//7 175//7 179//7 180//7
g wall_22_132
usemtl wall_1_2
f 172//1 173//1 179//1
f 172//1 179//1 178//1
g wall_22_133
usemtl wall_1_2
f 173//1 174//1 180//1
f 173//1 180//1 179//1
g wall_23_134
usemtl wall_1_2
v 985.75 0.0 221.5592
v 985.75 0.0 425.5592
v 989.5 0.0 221.5592
f 183//3 6//3 182//3
f 183//3 182//3 181//3
g wall_23_135
usemtl wall_1_2
v 993.25 0.0 425.5592
v 993.25 0.0 221.5592
f 185//3 184//3 6//3
f 185//3 6//3 183//3
g wall_23_136
usemtl wall_1_2
v 985.75 250.0 425.5592
v 985.75 250.0 221.5592
v 989.5 250.0 221.5592
f 181//10 182//10 186//10 187//10
f 182//7 6//7 11//7 186//7
f 183//6 181//6 187//6 188//6
g wall_23_137
usemtl wall_1_2
v 993.25 250.0 425.5592
v 993.25 250.0 221.5592
f 6//7 184//7 189//7 11//7
f 184//9 185//9 190//9 189//9
f 185//6 183//6 188//6 190//6
g wall_23_138
usemtl wall_1_2
f 187//1 186//1 11//1
f 187//1 11//1 188//1
g wall_23_139
usemtl wall_1_2
f 188//1 11//1 189//1
f 188//1 189//1 190//1
g wall_24_140
usemtl wall_1_2
v 1099.5 0.0 221.55922
v 1099.5 0.0 225.30922
f 90//3 192//3 191//3
f 90//3 191//3 88//3
g wall_24_141
usemtl wall_1_2
v 1099.5 0.0 217.80922
f 88//3 191//3 193//3
f 88//3 193//3 87//3
g wall_24_142
usemtl wall_1_2
v 1099.5 250.0 225.30922
v 1099.5 250.0 221.55922
vn 0.0000001 0.0 1.0
f 191//10 192//10 194//10 195//10
f 192//46 90//46 95//46 194//46
f 90//5 88//5 92//5 95//5
g wall_24_143
usemtl wall_1_2
v 1099.5 250.0 217.80922
vn -0.0000001 0.0 -1.0
f 87//47 193//47 196//47 93//47
f 193//10 191//10 195//10 196//10
f 88//5 87//5 93//5 92//5
g wall_24_144
usemtl wall_1_2
f 92//1 195//1 194//1
f 92//1 194//1 95//1
g wall_24_145
usemtl wall_1_2
f 93//1 196//1 195//1
f 93//1 195//1 92//1
g wall_25_146
usemtl wall_1_2
v 1063.5 0.0 221.55922
v 1063.5 0.0 225.30922
f 191//3 192//3 198//3
f 191//3 198//3 197//3
g wall_25_147
usemtl wall_1_2
v 1063.5 0.0 217.80922
f 193//3 191//3 197//3
f 193//3 197//3 199//3
g wall_25_148
usemtl wall_1_2
v 1063.5 250.0 225.30922
v 1063.5 250.0 221.55922
f 197//10 198//10 200//10 201//10
f 198//7 192//7 194//7 200//7
f 192//9 191//9 195//9 194//9
g wall_25_149
usemtl wall_1_2
v 1063.5 250.0 217.80922
f 199//10 197//10 201//10 202//10
f 191//9 193//9 196//9 195//9
f 193//6 199//6 202//6 196//6
g wall_25_150
usemtl wall_1_2
f 201//1 200//1 194//1
f 201//1 194//1 195//1
g wall_25_151
usemtl wall_1_2
f 202//1 201//1 195//1
f 202//1 195//1 196//1
g wall_26_152
usemtl wall_1_2
v 645.5 0.0 221.5592
v 645.5 0.0 225.3092
v 989.5 0.0 225.3092
f 183//3 205//3 204//3
f 183//3 204//3 203//3
g wall_26_153
usemtl wall_1_2
v 645.5 0.0 217.8092
v 989.5 0.0 217.8092
f 207//3 183//3 203//3
f 207//3 203//3 206//3
g wall_26_154
usemtl wall_1_2
v 645.5 250.0 225.3092
v 645.5 250.0 221.5592
v 989.5 250.0 225.3092
f 203//10 204//10 208//10 209//10
f 204//7 205//7 210//7 208//7
f 205//9 183//9 188//9 210//9
g wall_26_155
usemtl wall_1_2
v 645.5 250.0 217.8092
v 989.5 250.0 217.8092
f 206//10 203//10 209//10 211//10
f 183//9 207//9 212//9 188//9
f 207//6 206//6 211//6 212//6
g wall_26_156
usemtl wall_1_2
f 209//1 208//1 210//1
f 209//1 210//1 188//1
g wall_26_157
usemtl wall_1_2
f 211//1 209//1 188//1
f 211//1 188//1 212//1
